<svg width="40" height="40" viewBox="0 0 40 40" fill="none" xmlns="http://www.w3.org/2000/svg">
<path d="M29.9996 13.3333C30.8837 13.3333 31.7315 12.9822 32.3566 12.357C32.9817 11.7319 33.3329 10.8841 33.3329 10C33.3329 9.11596 32.9817 8.26811 32.3566 7.64299C31.7315 7.01787 30.8837 6.66668 29.9996 6.66668C29.1155 6.66668 28.2677 7.01787 27.6426 7.64299C27.0175 8.26811 26.6663 9.11596 26.6663 10C26.6663 10.8841 27.0175 11.7319 27.6426 12.357C28.2677 12.9822 29.1155 13.3333 29.9996 13.3333ZM16.5463 18.7333C16.7208 19.6399 16.706 20.5727 16.5029 21.4733L24.9029 25.7017C25.9494 24.4617 27.4123 23.6459 29.0172 23.4073C30.6221 23.1687 32.259 23.5235 33.621 24.4054C34.983 25.2873 35.9766 26.6356 36.4157 28.1977C36.8547 29.7597 36.7089 31.4283 36.0058 32.8906C35.3026 34.3529 34.0903 35.5085 32.596 36.1409C31.1018 36.7733 29.4282 36.8391 27.8889 36.3258C26.3496 35.8126 25.0504 34.7556 24.2347 33.353C23.419 31.9503 23.1428 30.2984 23.4579 28.7067L14.9746 24.4367C14.0695 25.4518 12.8755 26.1658 11.5529 26.4829C10.2303 26.8 8.84235 26.7049 7.57532 26.2105C6.3083 25.7161 5.22279 24.846 4.46446 23.717C3.70614 22.588 3.31128 21.254 3.33287 19.8941C3.35446 18.5342 3.79147 17.2134 4.58525 16.109C5.37903 15.0046 6.49161 14.1694 7.7737 13.7155C9.05578 13.2616 10.446 13.2106 11.7579 13.5695C13.0698 13.9284 14.2405 14.68 15.1129 15.7233L23.5063 11.52C23.1362 9.94021 23.355 8.27967 24.1216 6.84964C24.8883 5.41961 26.1501 4.31826 27.6707 3.75202C29.1913 3.18577 30.8661 3.19351 32.3814 3.77378C33.8966 4.35404 35.1483 5.467 35.9017 6.90406C36.6551 8.34111 36.8585 10.0036 36.4739 11.5799C36.0892 13.1562 35.1429 14.5382 33.8123 15.4667C32.4817 16.3952 30.8581 16.8066 29.2459 16.6237C27.6337 16.4409 26.1435 15.6763 25.0546 14.4733L16.5463 18.7333ZM9.9996 23.3333C10.8837 23.3333 11.7315 22.9822 12.3566 22.357C12.9817 21.7319 13.3329 20.8841 13.3329 20C13.3329 19.116 12.9817 18.2681 12.3566 17.643C11.7315 17.0179 10.8837 16.6667 9.9996 16.6667C9.11554 16.6667 8.2677 17.0179 7.64258 17.643C7.01746 18.2681 6.66627 19.116 6.66627 20C6.66627 20.8841 7.01746 21.7319 7.64258 22.357C8.2677 22.9822 9.11554 23.3333 9.9996 23.3333ZM29.9996 33.3333C30.8837 33.3333 31.7315 32.9821 32.3566 32.357C32.9817 31.7319 33.3329 30.8841 33.3329 30C33.3329 29.116 32.9817 28.2681 32.3566 27.643C31.7315 27.0179 30.8837 26.6667 29.9996 26.6667C29.1155 26.6667 28.2677 27.0179 27.6426 27.643C27.0175 28.2681 26.6663 29.116 26.6663 30C26.6663 30.8841 27.0175 31.7319 27.6426 32.357C28.2677 32.9821 29.1155 33.3333 29.9996 33.3333Z" fill="black"/>
</svg>
